<?xml version="1.0" encoding="utf-8"?>
<!-- Generator: Adobe Illustrator 18.1.0, SVG Export Plug-In . SVG Version: 6.00 Build 0)  -->
<svg version="1.1" id="Warstwa_1" xmlns="http://www.w3.org/2000/svg" xmlns:xlink="http://www.w3.org/1999/xlink" x="0px" y="0px"
	 width="154px" height="28px" viewBox="66 -10 154 28" enable-background="new 66 -10 154 28" xml:space="preserve">
<g>
	<path fill="#FFFFFF" d="M78.5-6.1v-1.8h2.7v6.8h-2.5c-0.3-2.6-2.1-4.5-4.6-4.5c-3.3,0-5.1,3.2-5.1,6.9c0,3.8,1.9,6.9,5.3,6.9
		c2.4,0,3.7-1.6,4.7-3.3l2.5,1.5c-1.1,2.2-3.6,4.5-7.2,4.5C69.4,10.9,66,7,66,1.2s3.3-9.5,8.2-9.5C76.1-8.3,77.9-7.3,78.5-6.1z"/>
	<path fill="#FFFFFF" d="M90.9-3.4c4.3,0,7.4,3.1,7.4,7.2s-3.2,7.2-7.4,7.2c-4.3,0-7.4-3.1-7.4-7.2S86.6-3.4,90.9-3.4z M90.9-0.7
		c-2.6,0-4.5,2-4.5,4.5c0,2.5,1.9,4.5,4.5,4.5s4.5-2,4.5-4.5C95.3,1.3,93.5-0.7,90.9-0.7z"/>
	<path fill="#FFFFFF" d="M110.5-6.3V-9h4.7V7.9h1.9v2.7h-4.7V8.9c-0.7,0.9-2.4,2.1-4.8,2.1c-3.9,0-6.9-3.1-6.9-7.2s2.9-7.2,6.9-7.2
		c2.4,0,4.1,1.1,4.8,2.1v-5H110.5z M107.9,8.4c2.5,0,4.5-1.9,4.5-4.4V3.6c0-2.6-1.9-4.4-4.5-4.4s-4.4,2-4.4,4.5
		C103.6,6.4,105.4,8.4,107.9,8.4z"/>
	<path fill="#FFFFFF" d="M132.9,8.5c-1.4,1.5-3.9,2.5-6.7,2.5c-4.6,0-7.7-3.1-7.7-7.2s3.1-7.2,7.3-7.2s7.2,3.3,7.2,7.7v0.5h-11.6
		c0.5,2.2,2.3,3.6,4.8,3.6c2,0,3.8-0.8,4.7-1.9L132.9,8.5z M130,2.4c-0.4-1.9-2.1-3.3-4-3.3c-2.1,0-3.8,1.3-4.3,3.3H130z"/>
	<path fill="#FFFFFF" d="M143-3.4c4.3,0,7.4,3.1,7.4,7.2s-3.2,7.2-7.4,7.2c-4.3,0-7.4-3.1-7.4-7.2S138.8-3.4,143-3.4z M143-0.7
		c-2.6,0-4.5,2-4.5,4.5c0,2.5,1.9,4.5,4.5,4.5c2.6,0,4.5-2,4.5-4.5C147.5,1.3,145.6-0.7,143-0.7z"/>
	<path fill="#FFFFFF" d="M165.8,7.9v2.7h-13.6V7.9h5.7V-6.3h-4.4V-9h7.1V7.9H165.8z"/>
	<path fill="#FFFFFF" d="M174.8-3.4c4.3,0,7.4,3.1,7.4,7.2s-3.2,7.2-7.4,7.2s-7.4-3.1-7.4-7.2S170.6-3.4,174.8-3.4z M174.8-0.7
		c-2.6,0-4.5,2-4.5,4.5c0,2.5,1.9,4.5,4.5,4.5c2.6,0,4.5-2,4.5-4.5C179.3,1.3,177.3-0.7,174.8-0.7z"/>
	<path fill="#FFFFFF" d="M187.6,12.6c1.2,1,2.5,1.9,4.3,1.9c2.2,0,4.3-1.1,4.3-3.7v-2c-0.7,0.9-2.4,2.1-4.8,2.1
		c-3.9,0-6.9-3-6.9-7.1c0-4.1,2.9-7.1,6.9-7.1c2.4,0,4.1,1.1,4.8,2.1V-3h4.7v2.7h-2v11c0,4.3-2.9,6.3-7.1,6.3
		c-3.1,0-4.9-1.2-6.1-2.3L187.6,12.6z M191.8,8.2c2.5,0,4.5-1.8,4.5-4.3V3.5c0-2.5-2-4.3-4.5-4.3s-4.4,2-4.4,4.5
		C187.5,6.3,189.3,8.2,191.8,8.2z"/>
	<path fill="#FFFFFF" d="M204.9,16.5v-2.7h3.8l1.5-3.2l-5.3-11h-1.7V-3h6.7v2.7h-1.9l3.6,7.9l3.6-7.9h-1.8V-3h6.7v2.7h-1.8
		l-6.8,14.1h1.9v2.7C213.6,16.5,204.9,16.5,204.9,16.5z"/>
</g>
</svg>
