<?xml version="1.0" encoding="utf-8"?>
<!-- Generator: Adobe Illustrator 18.1.0, SVG Export Plug-In . SVG Version: 6.00 Build 0)  -->
<svg version="1.1" id="Warstwa_1" xmlns="http://www.w3.org/2000/svg" xmlns:xlink="http://www.w3.org/1999/xlink" x="0px" y="0px"
	 width="230px" height="49px" viewBox="0 0 230 49" style="enable-background:new 0 0 230 49;" xml:space="preserve">
<style type="text/css">
	.st0{fill:#FFFFFF;}
</style>
<g>
	<path class="st0" d="M20.7,12.5V9.9h4v10.1h-3.7c-0.4-3.9-3.2-6.6-6.7-6.6c-5,0-7.6,4.7-7.6,10.2c0,5.6,2.7,10.2,7.8,10.2
		c3.6,0,5.5-2.3,7-4.7l3.7,2.2c-1.6,3.3-5.4,6.6-10.7,6.6c-7.3,0-12.3-5.7-12.3-14.3c0-8.6,5-14.3,12-14.3
		C17.1,9.2,19.8,10.7,20.7,12.5z"/>
	<path class="st0" d="M40,16.5c6.3,0,11,4.5,11,10.7c0,6.2-4.7,10.7-11,10.7s-11-4.5-11-10.7C29,21,33.7,16.5,40,16.5z M40,20.5
		c-3.8,0-6.6,2.9-6.6,6.7c0,3.8,2.8,6.7,6.6,6.7s6.6-2.9,6.6-6.7C46.6,23.4,43.8,20.5,40,20.5z"/>
	<path class="st0" d="M68,12.2v-4h7v25h2.9v4h-7v-2.4c-1.1,1.4-3.5,3.1-7.1,3.1c-5.8,0-10.1-4.5-10.1-10.7c0-6.2,4.3-10.7,10.1-10.7
		c3.6,0,6,1.7,7.1,3.1v-7.4H68z M64.2,33.9c3.7,0,6.6-2.7,6.6-6.5v-0.6c0-3.8-2.9-6.5-6.6-6.5s-6.4,2.9-6.4,6.8
		C57.8,31,60.5,33.9,64.2,33.9z"/>
	<path class="st0" d="M101.3,34.1c-2.1,2.2-5.7,3.7-9.8,3.7c-6.7,0-11.4-4.5-11.4-10.7c0-6.2,4.6-10.7,10.9-10.7
		c6.3,0,10.7,4.8,10.7,11.4v0.7H84.4c0.7,3.3,3.5,5.4,7.1,5.4c3,0,5.6-1.2,7-2.8L101.3,34.1z M96.9,25.1c-0.6-2.9-3.2-4.8-6-4.8
		c-3.2,0-5.6,2-6.3,4.8H96.9z"/>
	<path class="st0" d="M116.2,16.5c6.3,0,11,4.5,11,10.7c0,6.2-4.7,10.7-11,10.7c-6.3,0-11-4.5-11-10.7
		C105.1,21,109.9,16.5,116.2,16.5z M116.2,20.5c-3.8,0-6.6,2.9-6.6,6.7c0,3.8,2.8,6.7,6.6,6.7c3.8,0,6.6-2.9,6.6-6.7
		C122.8,23.4,120,20.5,116.2,20.5z"/>
	<path class="st0" d="M149,33.2v4h-20.2v-4h8.4v-21h-6.4v-4h10.5v25H149z"/>
	<path class="st0" d="M162.2,16.5c6.3,0,11,4.5,11,10.7c0,6.2-4.7,10.7-11,10.7s-11-4.5-11-10.7C151.2,21,155.9,16.5,162.2,16.5z
		 M162.2,20.5c-3.8,0-6.6,2.9-6.6,6.7c0,3.8,2.8,6.7,6.6,6.7s6.6-2.9,6.6-6.7C168.9,23.4,166,20.5,162.2,20.5z"/>
	<path class="st0" d="M180.3,40.2c1.8,1.5,3.7,2.7,6.3,2.7c3.3,0,6.3-1.7,6.3-5.5v-3c-1.1,1.4-3.5,3.1-7.1,3.1
		c-5.8,0-10.1-4.4-10.1-10.5c0-6.1,4.3-10.5,10.1-10.5c3.6,0,6,1.7,7.1,3.1v-2.4h7v4h-2.9v16.2c0,6.3-4.3,9.4-10.5,9.4
		c-4.5,0-7.3-1.7-9.1-3.5L180.3,40.2z M186.5,33.6c3.7,0,6.6-2.6,6.6-6.3v-0.6c0-3.7-2.9-6.3-6.6-6.3s-6.4,2.8-6.4,6.6
		C180.1,30.8,182.8,33.6,186.5,33.6z"/>
	<path class="st0" d="M205.8,46v-4h5.6l2.2-4.6l-7.8-16.3h-2.5v-4h9.8v4h-2.7l5.4,11.6l5.4-11.6h-2.6v-4h9.8v4h-2.6l-10,20.9h2.9v4
		H205.8z"/>
</g>
</svg>
