<?xml version="1.0" encoding="utf-8"?>
<!-- Generator: Adobe Illustrator 18.1.0, SVG Export Plug-In . SVG Version: 6.00 Build 0)  -->
<svg version="1.1" id="Warstwa_1" xmlns="http://www.w3.org/2000/svg" xmlns:xlink="http://www.w3.org/1999/xlink" x="0px" y="0px"
	 width="442px" height="134px" viewBox="-418 334 442 134" enable-background="new -418 334 442 134" xml:space="preserve">
<rect x="-418" y="334" fill="none" width="442" height="134"/>
<rect x="-418" y="360" fill="#FFFFFF" width="26" height="26"/>
<g>
	<line fill="none" stroke="#FFFFFF" stroke-miterlimit="10" x1="-416.5" y1="335.2" x2="-393.2" y2="358.5"/>
	<line fill="none" stroke="#FFFFFF" stroke-miterlimit="10" x1="-393.2" y1="335.2" x2="-416.8" y2="358.8"/>
</g>
<rect x="-418" y="334" fill="none" width="26" height="26"/>
<g>
	<rect x="-392" y="334" fill="none" width="26" height="26"/>
	<g>
		<rect x="-392" y="334" fill="none" width="26" height="26"/>
	</g>
</g>
<g>
	<circle fill="none" stroke="#FFFFFF" stroke-miterlimit="10" cx="-380" cy="346" r="5.5"/>
	<line fill="none" stroke="#FFFFFF" stroke-miterlimit="10" x1="-376.2" y1="349.8" x2="-372.5" y2="353.5"/>
</g>
<rect x="-366" y="334" fill="none" width="26" height="26"/>
<line fill="none" stroke="#FFFFFF" stroke-width="1.5" stroke-miterlimit="10" x1="-344.3" y1="338.3" x2="-350.6" y2="344.6"/>
<polyline fill="none" stroke="#FFFFFF" stroke-width="1.5" stroke-miterlimit="10" points="-349.7,338.3 -344.3,338.3 -344.3,343.7 
	"/>
<line fill="none" stroke="#FFFFFF" stroke-width="1.5" stroke-miterlimit="10" x1="-361.7" y1="355.7" x2="-355.4" y2="349.4"/>
<polyline fill="none" stroke="#FFFFFF" stroke-width="1.5" stroke-miterlimit="10" points="-356.3,355.7 -361.7,355.7 -361.7,350.3 
	"/>
<g>
	<line fill="none" stroke="#000000" stroke-miterlimit="10" x1="-416.5" y1="361.2" x2="-393.2" y2="384.5"/>
	<line fill="none" stroke="#000000" stroke-miterlimit="10" x1="-393.2" y1="361.2" x2="-416.8" y2="384.8"/>
</g>
<g>
	<rect x="-392" y="360" fill="#FFFFFF" width="26" height="26"/>
	<g>
		<rect x="-392" y="360" fill="#FFFFFF" width="26" height="26"/>
	</g>
</g>
<g>
	<circle fill="none" stroke="#000000" stroke-miterlimit="10" cx="-380" cy="372" r="5.5"/>
	<line fill="none" stroke="#000000" stroke-miterlimit="10" x1="-376.2" y1="375.8" x2="-372.5" y2="379.5"/>
</g>
<rect x="-366" y="360" fill="#FFFFFF" width="26" height="26"/>
<rect x="-418" y="438" fill="none" width="36" height="30"/>
<rect x="-418" y="386" fill="none" width="38.1" height="26"/>
<g>
	<g>
		<rect x="-414.5" y="389.5" fill="#FFFFFF" width="7.7" height="7.7"/>
		<rect x="-402.9" y="389.5" fill="#FFFFFF" width="7.7" height="7.7"/>
		<rect x="-391.3" y="389.5" fill="#FFFFFF" width="7.7" height="7.7"/>
		<rect x="-414.5" y="401.1" fill="#FFFFFF" width="7.7" height="7.7"/>
		<rect x="-402.9" y="401.1" fill="#FFFFFF" width="7.7" height="7.7"/>
		<rect x="-391.3" y="401.1" fill="#FFFFFF" width="7.7" height="7.7"/>
	</g>
</g>
<rect x="-418" y="412" fill="#FFFFFF" width="38.1" height="26"/>
<g>
	<g>
		<rect x="-414.5" y="415.5" width="7.7" height="7.7"/>
		<rect x="-402.9" y="415.5" width="7.7" height="7.7"/>
		<rect x="-391.3" y="415.5" width="7.7" height="7.7"/>
		<rect x="-414.5" y="427.1" width="7.7" height="7.7"/>
		<rect x="-402.9" y="427.1" width="7.7" height="7.7"/>
		<rect x="-391.3" y="427.1" width="7.7" height="7.7"/>
	</g>
</g>
<line fill="none" stroke="#000000" stroke-miterlimit="10" x1="-344.3" y1="364.3" x2="-350.6" y2="370.6"/>
<polyline fill="none" stroke="#000000" stroke-miterlimit="10" points="-349.7,364.3 -344.3,364.3 -344.3,369.7 "/>
<line fill="none" stroke="#000000" stroke-miterlimit="10" x1="-361.7" y1="381.7" x2="-355.4" y2="375.4"/>
<polyline fill="none" stroke="#000000" stroke-miterlimit="10" points="-356.3,381.7 -361.7,381.7 -361.7,376.3 "/>
<g>
	<rect x="-340" y="334" fill="none" width="26" height="26"/>
</g>
<path fill="none" stroke="#FFFFFF" stroke-miterlimit="10" d="M-327,354.5l-0.3-0.2c-0.2-0.1-3.8-2.3-5.9-5.5
	c-1.1-1.7-1.5-3.6-1-5.2c0.4-1.3,1.3-2.3,2.6-2.9c0.4-0.2,0.9-0.3,1.4-0.3c1.5,0,2.6,1,3.2,1.6c0.6-0.6,1.7-1.6,3.2-1.6
	c0.4,0,1,0.1,1.4,0.3c0.5,0.2,1,0.5,1.3,0.9c0.6,0.5,1,1.3,1.3,2.1c0.5,1.6,0.2,3.5-1,5.2c-2.1,3.3-5.7,5.5-5.9,5.5L-327,354.5z"/>
<g>
	<rect x="-340" y="360" fill="#FFFFFF" width="26" height="26"/>
</g>
<path fill="none" stroke="#000000" stroke-miterlimit="10" d="M-327,380.5l-0.3-0.2c-0.2-0.1-3.8-2.3-5.9-5.5
	c-1.1-1.7-1.5-3.6-1-5.2c0.4-1.3,1.3-2.3,2.6-2.9c0.4-0.2,0.9-0.3,1.4-0.3c1.5,0,2.6,1,3.2,1.6c0.6-0.6,1.7-1.6,3.2-1.6
	c0.4,0,1,0.1,1.4,0.3c0.5,0.2,1,0.5,1.3,0.9c0.6,0.5,1,1.3,1.3,2.1c0.5,1.6,0.2,3.5-1,5.2c-2.1,3.3-5.7,5.5-5.9,5.5L-327,380.5z"/>
<g>
	<rect x="-314" y="334" fill="none" width="26" height="26"/>
</g>
<path fill="#FFFFFF" d="M-301,354.5l-0.3-0.2c-0.2-0.1-3.8-2.3-5.9-5.5c-1.1-1.7-1.5-3.6-1-5.2c0.4-1.3,1.3-2.3,2.6-2.9
	c0.4-0.2,0.9-0.3,1.4-0.3c1.5,0,2.6,1,3.2,1.6c0.6-0.6,1.7-1.6,3.2-1.6c0.4,0,1,0.1,1.4,0.3c0.5,0.2,1,0.5,1.3,0.9
	c0.6,0.5,1,1.3,1.3,2.1c0.5,1.6,0.2,3.5-1,5.2c-2.1,3.3-5.7,5.5-5.9,5.5L-301,354.5z"/>
<g>
	<rect x="-314" y="360" fill="#FFFFFF" width="26" height="26"/>
</g>
<path d="M-301,380.5l-0.3-0.2c-0.2-0.1-3.8-2.3-5.9-5.5c-1.1-1.7-1.5-3.6-1-5.2c0.4-1.3,1.3-2.3,2.6-2.9c0.4-0.2,0.9-0.3,1.4-0.3
	c1.5,0,2.6,1,3.2,1.6c0.6-0.6,1.7-1.6,3.2-1.6c0.4,0,1,0.1,1.4,0.3c0.5,0.2,1,0.5,1.3,0.9c0.6,0.5,1,1.3,1.3,2.1
	c0.5,1.6,0.2,3.5-1,5.2c-2.1,3.3-5.7,5.5-5.9,5.5L-301,380.5z"/>
<g>
	<rect x="-288" y="334" fill="none" width="26" height="26"/>
</g>
<g>
	<polyline fill="none" stroke="#FFFFFF" stroke-miterlimit="10" points="-268.9,350.4 -268.9,352.5 -281.1,352.5 -281.1,340.3 
		-279,340.3 	"/>
	<polyline fill="none" stroke="#FFFFFF" stroke-miterlimit="10" points="-275,340.3 -268.9,340.3 -268.9,346.5 	"/>
	<line fill="none" stroke="#FFFFFF" stroke-miterlimit="10" x1="-268.9" y1="340.3" x2="-278.5" y2="349.9"/>
</g>
<g>
	<rect x="-288" y="360" fill="#FFFFFF" width="26" height="26"/>
</g>
<g>
	<polyline fill="none" stroke="#000000" stroke-miterlimit="10" points="-268.9,376.4 -268.9,378.5 -281.1,378.5 -281.1,366.3 
		-279,366.3 	"/>
	<polyline fill="none" stroke="#000000" stroke-miterlimit="10" points="-275,366.3 -268.9,366.3 -268.9,372.5 	"/>
	<line fill="none" stroke="#000000" stroke-miterlimit="10" x1="-268.9" y1="366.3" x2="-278.5" y2="375.9"/>
</g>
<g>
	<g>
		<path fill="#FFFFFF" d="M-392.4,453l-10.3,6l-0.9-1.9l7.1-4.2l-7.1-4.1l0.9-1.9L-392.4,453z"/>
	</g>
</g>
<g>
	<rect x="-262" y="334" fill="none" width="26" height="26"/>
	<rect x="-262" y="334" fill="none" width="26" height="26"/>
</g>
<g>
	<line fill="none" stroke="#FFFFFF" stroke-miterlimit="10" x1="-255.5" y1="353.5" x2="-242.5" y2="340.5"/>
	<line fill="none" stroke="#FFFFFF" stroke-miterlimit="10" x1="-242.5" y1="353.5" x2="-255.5" y2="340.5"/>
</g>
<g>
	<rect x="-262" y="360" opacity="0.75" fill="#FFFFFF" enable-background="new    " width="26" height="26"/>
	<rect x="-262" y="360" fill="#FFFFFF" width="26" height="26"/>
</g>
<g>
	<line fill="none" stroke="#000000" stroke-miterlimit="10" x1="-255.5" y1="379.5" x2="-242.5" y2="366.5"/>
	<line fill="none" stroke="#000000" stroke-miterlimit="10" x1="-242.5" y1="379.5" x2="-255.5" y2="366.5"/>
</g>
<g>
	<rect x="-210" y="360" fill="#FFFFFF" width="26" height="26"/>
</g>
<g>
	<rect x="-106" y="334" fill="none" width="26" height="26"/>
</g>
<g>
	<rect x="-132" y="334" fill="none" width="26" height="26"/>
</g>
<g>
	<rect x="-158" y="334" fill="none" width="26" height="26"/>
</g>
<g>
	<rect x="-184" y="334" fill="none" width="26" height="26"/>
</g>
<g>
	<rect x="-236" y="334" fill="none" width="26" height="26"/>
</g>
<g>
	<g>
		<path d="M-198.8,381.3h3.3c0,0,0-4.5,0-8.1h2.4l0.3-3.3h-2.6v-1.3c0-0.6,0.4-0.8,0.7-0.8s1.8,0,1.8,0V365h-2.5
			c-2.8,0-3.4,2.1-3.4,3.4v1.5h-1.6v3.3h1.6C-198.8,376.9-198.8,381.3-198.8,381.3z"/>
	</g>
</g>
<g>
	<rect x="-210" y="334" fill="none" width="26" height="26"/>
</g>
<g>
	<g>
		<path fill="#FFFFFF" d="M-198.8,355.3h3.3c0,0,0-4.5,0-8.1h2.4l0.3-3.3h-2.6v-1.3c0-0.6,0.4-0.8,0.7-0.8s1.8,0,1.8,0V339h-2.5
			c-2.8,0-3.4,2.1-3.4,3.4v1.5h-1.6v3.3h1.6C-198.8,350.9-198.8,355.3-198.8,355.3z"/>
	</g>
</g>
<g>
	<g>
		<path fill="#FFFFFF" d="M-147,353c0.2,0.4,0.4,0.8,0.8,1.1c0.3,0.3,0.9,0.6,1.4,0.8c0.5,0.2,1,0.3,1.6,0.3s1.2-0.1,1.7-0.2
			c0.5-0.2,1.1-0.3,1.8-0.7v-2.6c-0.8,0.5-1.6,0.8-2.3,0.8c-0.4,0-0.9-0.1-1.2-0.3c-0.3-0.2-0.5-0.4-0.6-0.7
			c-0.1-0.3-0.1-0.8-0.1-1.7v-4.2h3.6v-2.9h-3.6V339h-2.1c-0.1,0.9-0.3,1.6-0.5,2.1c-0.3,0.5-0.6,1-1,1.4c-0.4,0.3-1.1,0.7-1.7,0.9
			v2.3h2.1v5.7C-147.2,352-147.1,352.5-147,353z"/>
	</g>
</g>
<g>
	<g>
		<path fill="#FFFFFF" d="M-166.3,350.3h0.7c0.2,0,0.3-0.2,0.3-0.3v-2.4h2.4c0.2,0,0.3-0.2,0.3-0.3v-0.7c0-0.2-0.2-0.3-0.3-0.3h-2.4
			v-2.4c0-0.2-0.2-0.3-0.3-0.3h-0.7c-0.2,0-0.3,0.2-0.3,0.3v2.4h-2.4c-0.2,0-0.3,0.2-0.3,0.3v0.7c0,0.2,0.2,0.3,0.3,0.3h2.4v2.4
			C-166.6,350.2-166.5,350.3-166.3,350.3z"/>
		<path fill="#FFFFFF" d="M-175.9,354.6c0.6,0.2,1.3,0.3,2,0.3c0.6,0,1.2-0.1,1.7-0.3c1.7-0.5,2.8-1.7,2.8-3.2
			c0-1.4-0.4-2.3-1.6-3.1c-0.5-0.3-1-0.9-1-1c0-0.3,0-0.4,0.7-1c0.9-0.7,1.4-1.6,1.4-2.5s-0.3-1.6-0.7-2.2h0.3c0.1,0,0.2,0,0.2-0.1
			l1-0.7c0.1-0.1,0.2-0.3,0.1-0.3c-0.1-0.2-0.2-0.3-0.3-0.3h-4.3c-0.4,0-1,0.1-1.4,0.3c-1.6,0.5-2.7,1.9-2.7,3.3
			c0,1.9,1.5,3.5,3.6,3.5c0,0.2-0.1,0.3-0.1,0.4c0,0.3,0.1,0.6,0.3,0.9c0,0,0,0-0.1,0c-1.9,0-3.6,1-4.3,2.3
			c-0.2,0.3-0.3,0.7-0.3,1.1c0,0.3,0.1,0.7,0.3,1C-178,353.7-177.2,354.3-175.9,354.6z M-175.5,343.6c-0.1-0.7,0.1-1.4,0.4-1.7
			c0.3-0.3,0.5-0.4,0.9-0.4l0,0c1,0,1.8,1.1,2,2.3c0.1,0.7-0.1,1.4-0.4,1.8c-0.3,0.3-0.5,0.4-0.9,0.4l0,0l0,0
			C-174.5,346-175.4,344.9-175.5,343.6z M-173.7,349.6L-173.7,349.6c0.3,0,0.7,0.1,1,0.2c0.1,0.1,0.2,0.2,0.3,0.2
			c0.7,0.4,1.1,0.8,1.2,1.3c0,0.1,0.1,0.3,0.1,0.3c0,1.3-1,1.9-2.8,1.9c-1.4,0-2.5-0.9-2.5-2C-176.5,350.5-175.2,349.6-173.7,349.6z
			"/>
	</g>
</g>
<g>
	<g>
		<path fill="#FFFFFF" d="M-122.2,355.1c0,0.1,0.2,0.2,0.3,0.1s1.3-1.6,1.7-3c0.1-0.4,0.7-2.6,0.7-2.6c0.3,0.6,1.3,1.1,2.3,1.1
			c3.1,0,5.2-2.8,5.2-6.4c0-2.8-2.4-5.4-6.1-5.4c-4.6,0-6.9,3.2-6.9,5.8c0,1.6,0.6,3,2,3.6c0.3,0.1,0.4,0,0.5-0.3
			c0.1-0.2,0.2-0.6,0.2-0.8c0.1-0.3,0-0.3-0.2-0.5c-0.3-0.4-0.6-1-0.6-1.8c0-2.3,1.8-4.5,4.8-4.5c2.6,0,4,1.6,4,3.6
			c0,2.7-1.2,4.9-3,4.9c-1,0-1.7-0.8-1.6-1.8c0.3-1.2,0.9-2.4,0.9-3.3c0-0.8-0.4-1.4-1.3-1.4c-1,0-1.8,1-1.8,2.4
			c0,0.9,0.3,1.5,0.3,1.5s-1,4.3-1.2,5.1C-122.6,353-122.2,354.9-122.2,355.1z"/>
	</g>
</g>
<g>
	<path fill="#FFFFFF" d="M-86.1,351h-4.8c-0.5,0-1-0.4-1-1v-0.8h4.9V345h-4.9v-0.8c0-0.5,0.4-1,1-1h4.8c0.5,0,1,0.4,1,1v5.8
		C-85.1,350.6-85.5,351-86.1,351z M-93.7,349.3h-5V345h5v-0.8c0-0.5-0.4-1-1-1h-4.8c-0.5,0-1,0.4-1,1v5.8c0,0.5,0.4,1,1,1h4.8
		c0.5,0,1-0.4,1-1V349.3z M-96.6,347.2c0,0.5,0.3,0.8,0.8,0.8h6.1c0.5,0,0.8-0.3,0.8-0.8s-0.3-0.8-0.8-0.8h-6.1
		C-96.3,346.4-96.6,346.6-96.6,347.2z"/>
</g>
<path fill="#FFFFFF" d="M-214,341.6c-0.6,0.3-1.3,0.4-2.1,0.5c0.7-0.4,1.3-1.1,1.6-2c-0.7,0.4-1.5,0.7-2.3,0.9
	c-0.7-0.7-1.6-1.1-2.6-1.1c-2,0-3.6,1.6-3.6,3.6c0,0.3,0,0.5,0.1,0.8c-2.9-0.2-5.6-1.6-7.4-3.7c-0.3,0.5-0.5,1.1-0.5,1.8
	c0,1.2,0.6,2.3,1.6,2.9c-0.6,0-1.1-0.2-1.6-0.4c0,0,0,0,0,0.1c0,1.7,1.2,3.2,2.9,3.5c-0.3,0.1-0.6,0.1-1,0.1c-0.3,0-0.4,0-0.7-0.1
	c0.4,1.4,1.7,2.4,3.3,2.5c-1.2,1-2.8,1.6-4.4,1.6c-0.3,0-0.6,0-0.9-0.1c1.6,1,3.5,1.6,5.5,1.6c6.6,0,10.1-5.5,10.1-10.1
	c0-0.2,0-0.3,0-0.4C-215.1,343-214.5,342.3-214,341.6z"/>
<g>
	<rect x="-106" y="360" fill="#FFFFFF" width="26" height="26"/>
</g>
<g>
	<rect x="-132" y="360" fill="#FFFFFF" width="26" height="26"/>
</g>
<g>
	<rect x="-158" y="360" fill="#FFFFFF" width="26" height="26"/>
</g>
<g>
	<rect x="-184" y="360" fill="#FFFFFF" width="26" height="26"/>
</g>
<g>
	<rect x="-236" y="360" fill="#FFFFFF" width="26" height="26"/>
</g>
<g>
	<g>
		<path d="M-147,379c0.2,0.4,0.4,0.8,0.8,1.1c0.3,0.3,0.9,0.6,1.4,0.8c0.5,0.2,1,0.3,1.6,0.3s1.2-0.1,1.7-0.2
			c0.5-0.2,1.1-0.3,1.8-0.7v-2.6c-0.8,0.5-1.6,0.8-2.3,0.8c-0.4,0-0.9-0.1-1.2-0.3c-0.3-0.2-0.5-0.4-0.6-0.7s-0.1-0.8-0.1-1.7v-4.2
			h3.6v-2.9h-3.6V365h-2.1c-0.1,0.9-0.3,1.6-0.5,2.1c-0.3,0.5-0.6,1-1,1.4c-0.4,0.3-1.1,0.7-1.7,0.9v2.3h2.1v5.7
			C-147.2,378-147.1,378.5-147,379z"/>
	</g>
</g>
<g>
	<g>
		<path d="M-166.3,376.3h0.7c0.2,0,0.3-0.2,0.3-0.3v-2.4h2.4c0.2,0,0.3-0.2,0.3-0.3v-0.7c0-0.2-0.2-0.3-0.3-0.3h-2.4v-2.4
			c0-0.2-0.2-0.3-0.3-0.3h-0.7c-0.2,0-0.3,0.2-0.3,0.3v2.4h-2.4c-0.2,0-0.3,0.2-0.3,0.3v0.7c0,0.2,0.2,0.3,0.3,0.3h2.4v2.4
			C-166.6,376.2-166.5,376.3-166.3,376.3z"/>
		<path d="M-175.9,380.6c0.6,0.2,1.3,0.3,2,0.3c0.6,0,1.2-0.1,1.7-0.3c1.7-0.5,2.8-1.7,2.8-3.2c0-1.4-0.4-2.3-1.6-3.1
			c-0.5-0.3-1-0.9-1-1c0-0.3,0-0.4,0.7-1c0.9-0.7,1.4-1.6,1.4-2.5s-0.3-1.6-0.7-2.2h0.3c0.1,0,0.2,0,0.2-0.1l1-0.7
			c0.1-0.1,0.2-0.3,0.1-0.3c-0.1-0.2-0.2-0.3-0.3-0.3h-4.3c-0.4,0-1,0.1-1.4,0.3c-1.6,0.5-2.7,1.9-2.7,3.3c0,1.9,1.5,3.5,3.6,3.5
			c0,0.2-0.1,0.3-0.1,0.4c0,0.3,0.1,0.6,0.3,0.9c0,0,0,0-0.1,0c-1.9,0-3.6,1-4.3,2.3c-0.2,0.3-0.3,0.7-0.3,1.1c0,0.3,0.1,0.7,0.3,1
			C-178,379.7-177.2,380.3-175.9,380.6z M-175.5,369.6c-0.1-0.7,0.1-1.4,0.4-1.7c0.3-0.3,0.5-0.4,0.9-0.4l0,0c1,0,1.8,1.1,2,2.3
			c0.1,0.7-0.1,1.4-0.4,1.8c-0.3,0.3-0.5,0.4-0.9,0.4l0,0l0,0C-174.5,372-175.4,370.9-175.5,369.6z M-173.7,375.6L-173.7,375.6
			c0.3,0,0.7,0.1,1,0.2c0.1,0.1,0.2,0.2,0.3,0.2c0.7,0.4,1.1,0.8,1.2,1.3c0,0.1,0.1,0.3,0.1,0.3c0,1.3-1,1.9-2.8,1.9
			c-1.4,0-2.5-0.9-2.5-2C-176.5,376.5-175.2,375.6-173.7,375.6z"/>
	</g>
</g>
<g>
	<g>
		<path d="M-122.2,381.1c0,0.1,0.2,0.2,0.3,0.1s1.3-1.6,1.7-3c0.1-0.4,0.7-2.6,0.7-2.6c0.3,0.6,1.3,1.1,2.3,1.1
			c3.1,0,5.2-2.8,5.2-6.4c0-2.8-2.4-5.4-6.1-5.4c-4.6,0-6.9,3.2-6.9,5.8c0,1.6,0.6,3,2,3.6c0.3,0.1,0.4,0,0.5-0.3
			c0.1-0.2,0.2-0.6,0.2-0.8c0.1-0.3,0-0.3-0.2-0.5c-0.3-0.4-0.6-1-0.6-1.8c0-2.3,1.8-4.5,4.8-4.5c2.6,0,4,1.6,4,3.6
			c0,2.7-1.2,4.9-3,4.9c-1,0-1.7-0.8-1.6-1.8c0.3-1.2,0.9-2.4,0.9-3.3c0-0.8-0.4-1.4-1.3-1.4c-1,0-1.8,1-1.8,2.4
			c0,0.9,0.3,1.5,0.3,1.5s-1,4.3-1.2,5.1C-122.6,379-122.2,380.9-122.2,381.1z"/>
	</g>
</g>
<g>
	<path d="M-86.1,376.7h-4.8c-0.5,0-1-0.4-1-1V375h4.9v-4.2h-4.9V370c0-0.5,0.4-1,1-1h4.8c0.5,0,1,0.4,1,1v5.8
		C-85.1,376.3-85.5,376.7-86.1,376.7z M-93.7,375h-5v-4.2h5V370c0-0.5-0.4-1-1-1h-4.8c-0.5,0-1,0.4-1,1v5.8c0,0.5,0.4,1,1,1h4.8
		c0.5,0,1-0.4,1-1V375z M-96.6,372.8c0,0.5,0.3,0.8,0.8,0.8h6.1c0.5,0,0.8-0.3,0.8-0.8s-0.3-0.8-0.8-0.8h-6.1
		C-96.3,372.1-96.6,372.3-96.6,372.8z"/>
</g>
<path d="M-214,367.6c-0.6,0.3-1.3,0.4-2.1,0.5c0.7-0.4,1.3-1.1,1.6-2c-0.7,0.4-1.5,0.7-2.3,0.9c-0.7-0.7-1.6-1.1-2.6-1.1
	c-2,0-3.6,1.6-3.6,3.6c0,0.3,0,0.5,0.1,0.8c-2.9-0.2-5.6-1.6-7.4-3.7c-0.3,0.5-0.5,1.1-0.5,1.8c0,1.2,0.6,2.3,1.6,2.9
	c-0.6,0-1.1-0.2-1.6-0.4c0,0,0,0,0,0.1c0,1.7,1.2,3.2,2.9,3.5c-0.3,0.1-0.6,0.1-1,0.1c-0.3,0-0.4,0-0.7-0.1c0.4,1.4,1.7,2.4,3.3,2.5
	c-1.2,1-2.8,1.6-4.4,1.6c-0.3,0-0.6,0-0.9-0.1c1.6,1,3.5,1.6,5.5,1.6c6.6,0,10.1-5.5,10.1-10.1c0-0.2,0-0.3,0-0.4
	C-215.1,369-214.5,368.3-214,367.6z"/>
<g>
	<rect x="-80" y="334" fill="none" width="26" height="26"/>
</g>
<rect x="-54" y="334" fill="none" width="26" height="26"/>
<rect x="-28" y="334" fill="none" width="26" height="26"/>
<rect x="-2" y="334" fill="none" width="26" height="26"/>
<g>
	<path fill="#FFFFFF" d="M-63.3,350.6v1.5h-7.5v-1.5h3.1v-4.4H-70v-1.5h3.9v5.9C-66,350.6-63.3,350.6-63.3,350.6z M-66.1,343.3h-1.7
		V341h1.7V343.3z"/>
</g>
<g>
	<rect x="-80" y="360" fill="#FFFFFF" width="26" height="26"/>
</g>
<g>
	<path d="M-63.3,376.6v1.5h-7.5v-1.5h3.1v-4.4H-70v-1.5h3.9v5.9H-63.3z M-66.1,369.3h-1.7V367h1.7V369.3z"/>
</g>
<g>
	<g>
		<defs>
			<rect id="SVGID_1_" x="-22.8" y="339.2" width="15.5" height="15.5"/>
		</defs>
		<clipPath id="SVGID_2_">
			<use xlink:href="#SVGID_1_"  overflow="visible"/>
		</clipPath>
		
			<line clip-path="url(#SVGID_2_)" fill="none" stroke="#FFFFFF" stroke-miterlimit="10" x1="-34.8" y1="348.1" x2="-13.4" y2="326.7"/>
	</g>
	<g>
		<defs>
			<rect id="SVGID_3_" x="-22.8" y="339.2" width="15.5" height="15.5"/>
		</defs>
		<clipPath id="SVGID_4_">
			<use xlink:href="#SVGID_3_"  overflow="visible"/>
		</clipPath>
		
			<line clip-path="url(#SVGID_4_)" fill="none" stroke="#FFFFFF" stroke-miterlimit="10" x1="-32.9" y1="349.9" x2="-11.5" y2="328.6"/>
	</g>
	<g>
		<defs>
			<rect id="SVGID_5_" x="-22.8" y="339.2" width="15.5" height="15.5"/>
		</defs>
		<clipPath id="SVGID_6_">
			<use xlink:href="#SVGID_5_"  overflow="visible"/>
		</clipPath>
		
			<line clip-path="url(#SVGID_6_)" fill="none" stroke="#FFFFFF" stroke-miterlimit="10" x1="-31" y1="351.8" x2="-9.7" y2="330.4"/>
	</g>
	<g>
		<defs>
			<rect id="SVGID_7_" x="-22.8" y="339.2" width="15.5" height="15.5"/>
		</defs>
		<clipPath id="SVGID_8_">
			<use xlink:href="#SVGID_7_"  overflow="visible"/>
		</clipPath>
		
			<line clip-path="url(#SVGID_8_)" fill="none" stroke="#FFFFFF" stroke-miterlimit="10" x1="-29.2" y1="353.7" x2="-7.8" y2="332.3"/>
	</g>
	<g>
		<defs>
			<rect id="SVGID_9_" x="-22.8" y="339.2" width="15.5" height="15.5"/>
		</defs>
		<clipPath id="SVGID_10_">
			<use xlink:href="#SVGID_9_"  overflow="visible"/>
		</clipPath>
		
			<line clip-path="url(#SVGID_10_)" fill="none" stroke="#FFFFFF" stroke-miterlimit="10" x1="-27.3" y1="355.5" x2="-5.9" y2="334.2"/>
	</g>
	<g>
		<defs>
			<rect id="SVGID_11_" x="-22.8" y="339.2" width="15.5" height="15.5"/>
		</defs>
		<clipPath id="SVGID_12_">
			<use xlink:href="#SVGID_11_"  overflow="visible"/>
		</clipPath>
		
			<line clip-path="url(#SVGID_12_)" fill="none" stroke="#FFFFFF" stroke-miterlimit="10" x1="-25.4" y1="357.4" x2="-4.1" y2="336"/>
	</g>
	<g>
		<defs>
			<rect id="SVGID_13_" x="-22.8" y="339.2" width="15.5" height="15.5"/>
		</defs>
		<clipPath id="SVGID_14_">
			<use xlink:href="#SVGID_13_"  overflow="visible"/>
		</clipPath>
		
			<line clip-path="url(#SVGID_14_)" fill="none" stroke="#FFFFFF" stroke-miterlimit="10" x1="-19.8" y1="363" x2="1.5" y2="341.6"/>
	</g>
	<g>
		<defs>
			<rect id="SVGID_15_" x="-22.8" y="339.2" width="15.5" height="15.5"/>
		</defs>
		<clipPath id="SVGID_16_">
			<use xlink:href="#SVGID_15_"  overflow="visible"/>
		</clipPath>
		
			<line clip-path="url(#SVGID_16_)" fill="none" stroke="#FFFFFF" stroke-miterlimit="10" x1="-23.6" y1="359.3" x2="-2.2" y2="337.9"/>
	</g>
	<g>
		<defs>
			<rect id="SVGID_17_" x="-22.8" y="339.2" width="15.5" height="15.5"/>
		</defs>
		<clipPath id="SVGID_18_">
			<use xlink:href="#SVGID_17_"  overflow="visible"/>
		</clipPath>
		
			<line clip-path="url(#SVGID_18_)" fill="none" stroke="#FFFFFF" stroke-miterlimit="10" x1="-18" y1="364.9" x2="3.4" y2="343.5"/>
	</g>
	<g>
		<defs>
			<rect id="SVGID_19_" x="-22.8" y="339.2" width="15.5" height="15.5"/>
		</defs>
		<clipPath id="SVGID_20_">
			<use xlink:href="#SVGID_19_"  overflow="visible"/>
		</clipPath>
		
			<line clip-path="url(#SVGID_20_)" fill="none" stroke="#FFFFFF" stroke-miterlimit="10" x1="-21.7" y1="361.2" x2="-0.3" y2="339.8"/>
	</g>
</g>
<polyline fill="none" stroke="#FFFFFF" stroke-miterlimit="10" points="-37.3,346.3 -40.9,349.9 -44.6,346.3 "/>
<line fill="none" stroke="#FFFFFF" stroke-miterlimit="10" x1="-40.9" y1="349.9" x2="-41" y2="340.1"/>
<polyline fill="none" stroke="#FFFFFF" stroke-miterlimit="10" points="-34.9,350.6 -34.9,352.7 -47,352.7 -47,350.6 "/>
<path fill="none" stroke="#FFFFFF" stroke-miterlimit="10" d="M17.6,345.5"/>
<g>
	<path fill="#FFFFFF" d="M12.9,339.5v2.7v1h1h2.9v11.3H5.2v-15H12.9 M13.9,338.5H4.2v17h13.6v-13.3h-3.9L13.9,338.5L13.9,338.5z"/>
</g>
<line fill="none" stroke="#FFFFFF" stroke-miterlimit="10" x1="17.6" y1="342.4" x2="13.7" y2="338.7"/>
<rect x="-54" y="360" fill="#FFFFFF" width="26" height="26"/>
<rect x="-28" y="360" fill="#FFFFFF" width="26" height="26"/>
<rect x="-2" y="360" fill="#FFFFFF" width="26" height="26"/>
<g>
	<rect x="-28" y="360" fill="#FFFFFF" width="26" height="26"/>
</g>
<g>
	<g>
		<defs>
			<rect id="SVGID_21_" x="-22.8" y="365.2" width="15.5" height="15.5"/>
		</defs>
		<clipPath id="SVGID_22_">
			<use xlink:href="#SVGID_21_"  overflow="visible"/>
		</clipPath>
		
			<line clip-path="url(#SVGID_22_)" fill="none" stroke="#000000" stroke-miterlimit="10" x1="-34.8" y1="374.1" x2="-13.4" y2="352.7"/>
	</g>
	<g>
		<defs>
			<rect id="SVGID_23_" x="-22.8" y="365.2" width="15.5" height="15.5"/>
		</defs>
		<clipPath id="SVGID_24_">
			<use xlink:href="#SVGID_23_"  overflow="visible"/>
		</clipPath>
		
			<line clip-path="url(#SVGID_24_)" fill="none" stroke="#000000" stroke-miterlimit="10" x1="-32.9" y1="375.9" x2="-11.5" y2="354.6"/>
	</g>
	<g>
		<defs>
			<rect id="SVGID_25_" x="-22.8" y="365.2" width="15.5" height="15.5"/>
		</defs>
		<clipPath id="SVGID_26_">
			<use xlink:href="#SVGID_25_"  overflow="visible"/>
		</clipPath>
		
			<line clip-path="url(#SVGID_26_)" fill="none" stroke="#000000" stroke-miterlimit="10" x1="-31" y1="377.8" x2="-9.7" y2="356.4"/>
	</g>
	<g>
		<defs>
			<rect id="SVGID_27_" x="-22.8" y="365.2" width="15.5" height="15.5"/>
		</defs>
		<clipPath id="SVGID_28_">
			<use xlink:href="#SVGID_27_"  overflow="visible"/>
		</clipPath>
		
			<line clip-path="url(#SVGID_28_)" fill="none" stroke="#000000" stroke-miterlimit="10" x1="-29.2" y1="379.7" x2="-7.8" y2="358.3"/>
	</g>
	<g>
		<defs>
			<rect id="SVGID_29_" x="-22.8" y="365.2" width="15.5" height="15.5"/>
		</defs>
		<clipPath id="SVGID_30_">
			<use xlink:href="#SVGID_29_"  overflow="visible"/>
		</clipPath>
		
			<line clip-path="url(#SVGID_30_)" fill="none" stroke="#000000" stroke-miterlimit="10" x1="-27.3" y1="381.5" x2="-5.9" y2="360.2"/>
	</g>
	<g>
		<defs>
			<rect id="SVGID_31_" x="-22.8" y="365.2" width="15.5" height="15.5"/>
		</defs>
		<clipPath id="SVGID_32_">
			<use xlink:href="#SVGID_31_"  overflow="visible"/>
		</clipPath>
		
			<line clip-path="url(#SVGID_32_)" fill="none" stroke="#000000" stroke-miterlimit="10" x1="-25.4" y1="383.4" x2="-4.1" y2="362"/>
	</g>
	<g>
		<defs>
			<rect id="SVGID_33_" x="-22.8" y="365.2" width="15.5" height="15.5"/>
		</defs>
		<clipPath id="SVGID_34_">
			<use xlink:href="#SVGID_33_"  overflow="visible"/>
		</clipPath>
		
			<line clip-path="url(#SVGID_34_)" fill="none" stroke="#000000" stroke-miterlimit="10" x1="-19.8" y1="389" x2="1.5" y2="367.6"/>
	</g>
	<g>
		<defs>
			<rect id="SVGID_35_" x="-22.8" y="365.2" width="15.5" height="15.5"/>
		</defs>
		<clipPath id="SVGID_36_">
			<use xlink:href="#SVGID_35_"  overflow="visible"/>
		</clipPath>
		
			<line clip-path="url(#SVGID_36_)" fill="none" stroke="#000000" stroke-miterlimit="10" x1="-23.6" y1="385.3" x2="-2.2" y2="363.9"/>
	</g>
	<g>
		<defs>
			<rect id="SVGID_37_" x="-22.8" y="365.2" width="15.5" height="15.5"/>
		</defs>
		<clipPath id="SVGID_38_">
			<use xlink:href="#SVGID_37_"  overflow="visible"/>
		</clipPath>
		
			<line clip-path="url(#SVGID_38_)" fill="none" stroke="#000000" stroke-miterlimit="10" x1="-18" y1="390.9" x2="3.4" y2="369.5"/>
	</g>
	<g>
		<defs>
			<rect id="SVGID_39_" x="-22.8" y="365.2" width="15.5" height="15.5"/>
		</defs>
		<clipPath id="SVGID_40_">
			<use xlink:href="#SVGID_39_"  overflow="visible"/>
		</clipPath>
		
			<line clip-path="url(#SVGID_40_)" fill="none" stroke="#000000" stroke-miterlimit="10" x1="-21.7" y1="387.2" x2="-0.3" y2="365.8"/>
	</g>
</g>
<g>
	<rect x="-54" y="360" fill="#FFFFFF" width="26" height="26"/>
</g>
<polyline fill="none" stroke="#000000" stroke-miterlimit="10" points="-37.3,372.3 -40.9,375.9 -44.6,372.3 "/>
<line fill="none" stroke="#000000" stroke-miterlimit="10" x1="-40.9" y1="375.9" x2="-41" y2="366.1"/>
<polyline fill="none" stroke="#000000" stroke-miterlimit="10" points="-34.9,376.6 -34.9,378.7 -47,378.7 -47,376.6 "/>
<g>
	<rect x="-2" y="360" fill="#FFFFFF" width="26" height="26"/>
</g>
<path fill="none" stroke="#FFFFFF" stroke-miterlimit="10" d="M17.6,371.5"/>
<g>
	<g>
		<path d="M12.9,365.5v2.7v1h1h2.9v11.3H5.2v-15H12.9 M13.9,364.5H4.2v17h13.6v-13.3h-3.9L13.9,364.5L13.9,364.5z"/>
	</g>
</g>
<line fill="none" stroke="#000000" stroke-miterlimit="10" x1="17.6" y1="368.4" x2="13.7" y2="364.7"/>
</svg>
